<?xml version="1.0" standalone="no"?>
<!DOCTYPE svg PUBLIC "-//W3C//DTD SVG 20010904//EN"
 "http://www.w3.org/TR/2001/REC-SVG-20010904/DTD/svg10.dtd">
<svg version="1.0" xmlns="http://www.w3.org/2000/svg"
 width="512.000000pt" height="512.000000pt" viewBox="0 0 512.000000 512.000000"
 preserveAspectRatio="xMidYMid meet">

<g transform="translate(0.000000,512.000000) scale(0.100000,-0.100000)"
fill="#FF4F18" stroke="#FF4F18">
<path d="M2470 4738 c-41 -22 -49 -57 -62 -247 l-11 -180 75 -83 c718 -794
958 -1577 721 -2357 -104 -346 -322 -698 -656 -1064 -64 -70 -117 -130 -117
-132 0 -2 29 -64 65 -138 62 -130 66 -135 111 -157 47 -21 48 -21 88 -3 128
57 598 490 780 718 240 303 411 627 481 917 163 670 -37 1317 -623 2015 -149
178 -575 583 -724 689 -42 30 -95 39 -128 22z"/>
<path d="M2353 3898 c-5 -7 -18 -60 -27 -118 -24 -136 -74 -333 -125 -491
l-41 -126 24 -69 c79 -226 110 -438 103 -699 -6 -218 -30 -351 -97 -555 -39
-120 -143 -348 -200 -442 -16 -26 -30 -54 -30 -61 0 -7 18 -31 41 -52 52 -51
184 -214 228 -283 48 -76 61 -72 166 46 312 350 506 708 587 1082 19 91 22
135 23 320 0 186 -3 230 -23 330 -66 322 -230 664 -478 991 -108 144 -127 159
-151 127z"/>
<path d="M1885 2643 c-161 -232 -336 -386 -582 -511 -128 -66 -169 -96 -179
-136 -16 -66 30 -120 186 -215 58 -35 173 -109 256 -163 83 -54 158 -98 167
-98 22 0 61 62 118 190 62 138 103 266 136 420 24 113 27 144 26 330 0 227 -6
264 -44 267 -20 2 -34 -12 -84 -84z"/>
</g>
</svg>
